<?xml version="1.0" encoding="utf-8"?>
<!-- Generator: Adobe Illustrator 22.0.0, SVG Export Plug-In . SVG Version: 6.00 Build 0)  -->
<svg version="1.1" id="Layer_1" xmlns="http://www.w3.org/2000/svg" xmlns:xlink="http://www.w3.org/1999/xlink" x="0px" y="0px"
	 viewBox="0 0 3.4 32" style="enable-background:new 0 0 3.4 32;" xml:space="preserve">
<style type="text/css">
	.st0{fill:#F4F4F4;}
</style>
<g>
	<path class="st0" d="M0.4,30.6v-2.2l0.3-0.3h2.1l0.3,0.3v2.2H0.4z M2.4,29.9V29l-0.1-0.1H1.1L1,29v0.9H2.4z"/>
	<path class="st0" d="M2.4,26.9v-1.5h0.7v2.3H0.5v-2.3h0.7v1.5h0.4v-1.3h0.6v1.3H2.4L2.4,26.9z"/>
	<path class="st0" d="M2.4,24.1v-1.2h0.7v2H0.5v-0.8H2.4z"/>
	<path class="st0" d="M0.4,20.6h0.7v0.8h2v0.8h-2V23H0.4L0.4,20.6L0.4,20.6z"/>
	<path class="st0" d="M3.1,20.8l-2.6-1v-1l2.6-1v0.9l-0.3,0.1v1l0.3,0.1V20.8z M2.1,19l-0.9,0.3l0.9,0.3V19z"/>
	<g>
		<path class="st0" d="M2.4,15.3v-1.2h0.7v2H0.5v-0.8H2.4z"/>
		<path class="st0" d="M2.4,12.8v-1.5h0.7v2.3H0.5v-2.3h0.7v1.5h0.4v-1.2h0.6v1.3h0.2V12.8z"/>
		<path class="st0" d="M0.4,8.8l0.3-0.3h2.1l0.3,0.3v2l-0.3,0.3H0.7l-0.3-0.4V8.8L0.4,8.8z M1.1,9.3v0.8l0.1,0.1h1.2l0.1-0.1V9.3
			L2.4,9.1L1.1,9.3L1.1,9.3z"/>
		<path class="st0" d="M3.1,7.2V8H0.5V7.2l1.3-0.9H0.5V5.5h2.6v0.7L1.7,7.3L3.1,7.2L3.1,7.2z"/>
		<path class="st0" d="M3.1,4.2V5H0.5V4.2H3.1L3.1,4.2z"/>
		<path class="st0" d="M2.3,2.2H2.1L2,2.3v1.2L1.8,3.7H0.7L0.4,3.3v-2h0.7v1.4l0.1,0.1h0.2l0.1-0.1V1.6l0.3-0.3h1.1l0.2,0.3v2H2.4
			L2.3,2.2L2.3,2.2z"/>
	</g>
</g>
</svg>
