<?xml version="1.0" encoding="utf-8"?>
<!-- Generator: Adobe Illustrator 22.0.0, SVG Export Plug-In . SVG Version: 6.00 Build 0)  -->
<svg version="1.1" id="Layer_1" xmlns="http://www.w3.org/2000/svg" xmlns:xlink="http://www.w3.org/1999/xlink" x="0px" y="0px"
	 viewBox="0 0 128 104.7" style="enable-background:new 0 0 128 104.7;" xml:space="preserve">
<style type="text/css">
	.st0{fill:#FFFFFF;}
	.st1{fill:#070606;}
	.st2{fill:none;stroke:#000000;stroke-miterlimit:10;}
	.st3{fill:#FFF5F5;}
</style>
<g>
	<polyline class="st0" points="64.7,-0.3 128.3,-0.3 128.3,104.6 64.7,104.6 	"/>
	<polyline class="st1" points="64.7,104.6 0,104.6 0,-0.3 64.7,-0.3 	"/>
	<path class="st2" d="M64.5,32.9"/>
	<g>
		<g>
			<path class="st1" d="M128.3,122.4"/>
			<polygon class="st1" points="128,104.7 128,96.2 86.8,54.9 86.7,64.1 115.7,104.7 			"/>
			<polyline class="st1" points="128.8,55.8 93.1,43.3 90.8,48.6 128.8,70.7 			"/>
			<polyline class="st1" points="128.9,26.9 91.9,30.4 90.5,35 128.9,38.1 			"/>
			<polyline class="st1" points="128.8,2.7 64.5,32.9 128.9,15.4 			"/>
			<polyline class="st1" points="98.1,-0.9 64.5,32.9 112.5,-0.9 			"/>
			<polyline class="st1" points="80.1,-0.9 64.5,32.9 88,-0.8 			"/>
			<polyline class="st1" points="67.3,-1 64.5,32.9 73.4,-0.9 			"/>
		</g>
	</g>
	<g>
		<path class="st3" d="M50.4,70c0,0,2.5-1.8,3.8-1.4c0,0-0.9,6.4-0.7,8.7C51.9,75.1,50.9,72.6,50.4,70z"/>
		<path class="st3" d="M64.5,17.5L51,13.6c0,0-23.6-1.9-12.7,28.6l-4.5-1.1l-0.8,8l4.2,5.7l9-14.5c1.6-2.6,0.7-5.2-1.3-7.3
			c-1-1-2.1-1.9-3.3-2.7c-0.7-0.5-2.6-2.2-3.3-2.3c2,0.2,3.8-0.3,5.8,0.3c3.3,1,5.6,3.6,8.2,5.8L40.7,54.8c0,0-2.1,12,4,16.6
			c0,0,8.4-8.3,17.3-8.4c0.5-0.2,1-0.3,1.5-0.3l0,0l-0.3-2.8c0,0,0.2-3.5-6.4-7s-4.3-5.3-4.3-5.3c3.9,1.3,8,2,12.1,2.1"/>
		<path class="st3" d="M59.8,84.1H56c0,0,0.5-5.4,0.8-4.9C57.1,79.6,56.9,83,59.8,84.1z"/>
		<path class="st3" d="M64.7,93.3c-2.3,0.8-4.6,2.3-6.9,1c-2.6-1.5-4.5-3.7-5.6-6.5c-0.9-2.6,1.2-1.7,3.1-1.5c3,0.2,6.4,1.1,9.3,0.8
			"/>
	</g>
	<g>
		<g>
			<path class="st1" d="M79.2,70.9c0,0-2.5-1.8-3.8-1.4c0,0,0.9,6.4,0.7,8.7C77.6,76.1,78.7,73.6,79.2,70.9z"/>
			<path class="st1" d="M69.5,84.1h3.9c0,0-0.5-5.4-0.8-4.9C72.2,79.6,72.4,83,69.5,84.1z"/>
			<path class="st1" d="M64.7,87.1l9-0.8c2.4-0.2,3.3-0.4,2.6,2.5c-0.6,2.6-2.9,6.4-5.8,6.2c-2-0.2-3.9-1.6-5.9-1.7"/>
			<path class="st1" d="M64.6,49.7c4,0.1,8-0.6,11.8-2.1c0,0,1.1,3.1-3.3,5c-4.5,1.9-7.2,4.4-7.3,7.2c-0.1,2.8-0.6,2.8-0.6,2.8l0,0
				c3.7,0.3,9.6,2,17,8.1c0,0,10.8-4.9,5.7-15.8C82.8,44,76.7,33.6,76.7,33.6s6-6.5,14-5.2l-7.4,5.9c0,0-3.3,3.2,0.2,7
				C87,45.2,92.3,55,92.3,55l4-6.4l-0.8-7.3l-5,1.3c0,0,12.8-28.9-13.3-28.9l-12.7,3.9"/>
		</g>
	</g>
</g>
</svg>
