<?xml version="1.0" encoding="utf-8"?>
<!-- Generator: Adobe Illustrator 22.0.0, SVG Export Plug-In . SVG Version: 6.00 Build 0)  -->
<svg version="1.1" id="Layer_1" xmlns="http://www.w3.org/2000/svg" xmlns:xlink="http://www.w3.org/1999/xlink" x="0px" y="0px"
	 viewBox="0 0 111 110.7" style="enable-background:new 0 0 111 110.7;" xml:space="preserve">
<style type="text/css">
	.st0{fill:#FFFFFF;}
	.st1{fill:#070606;}
	.st2{fill:none;stroke:#000000;stroke-miterlimit:10;}
	.st3{filter:url(#Adobe_OpacityMaskFilter);}
	.st4{fill:#F4F4F4;}
	.st5{mask:url(#SVGID_1_);}
	.st6{fill:#FFF5F5;}
</style>
<g>
	<polyline class="st0" points="55.8,0.2 111.2,0.2 111.2,92 55.8,92 	"/>
	<polyline class="st1" points="55.8,92 -0.4,92 -0.4,0.2 55.8,0.2 	"/>
	<path class="st2" d="M55.7,29.2"/>
	<defs>
		<filter id="Adobe_OpacityMaskFilter" filterUnits="userSpaceOnUse" x="55.7" y="-0.5" width="56.1" height="108.1">
			<feColorMatrix  type="matrix" values="1 0 0 0 0  0 1 0 0 0  0 0 1 0 0  0 0 0 1 0"/>
		</filter>
	</defs>
	<mask maskUnits="userSpaceOnUse" x="55.7" y="-0.5" width="56.1" height="108.1" id="SVGID_1_">
		<g class="st3">
			<polyline class="st4" points="55.8,0 111.5,0 111.5,92.4 55.8,92.4 			"/>
		</g>
	</mask>
	<g class="st5">
		<g>
			<polyline class="st1" points="111.8,84.8 75.1,48.5 75,56.6 111.2,107.6 			"/>
			<polyline class="st1" points="111.6,49.3 80.6,38.4 78.5,43 111.6,62.3 			"/>
			<polyline class="st1" points="111.7,24 79.5,27 78.3,31.1 111.7,33.8 			"/>
			<polyline class="st1" points="111.6,2.8 55.7,29.2 111.7,13.9 			"/>
			<polyline class="st1" points="84.9,-0.4 55.7,29.2 97.4,-0.3 			"/>
			<polyline class="st1" points="69.3,-0.4 55.7,29.2 76.1,-0.3 			"/>
			<polyline class="st1" points="58.1,-0.5 55.7,29.2 63.4,-0.4 			"/>
		</g>
	</g>
	<g>
		<path class="st6" d="M43.4,61.7c0,0,2.2-1.6,3.3-1.2c0,0-0.8,5.6-0.6,7.6C44.7,66.2,43.8,64,43.4,61.7z"/>
		<path class="st6" d="M55.7,15.7l-11.7-3.4c0,0-20.5-1.7-11,25l-3.9-1l-0.7,7l3.6,5l7.8-12.7c1.4-2.3,0.6-4.6-1.1-6.4
			c-0.9-0.9-1.8-1.7-2.9-2.3c-0.6-0.4-2.2-2-2.9-2c1.8,0.1,3.3-0.3,5.1,0.3c2.9,0.8,4.9,3.1,7.1,5L35,48.4c0,0-1.8,10.5,3.5,14.5
			c0,0,7.3-7.2,15.1-7.4c0.4-0.2,0.8-0.2,1.3-0.2l0,0l-0.3-2.5c0,0,0.2-3.1-5.5-6.1s-3.7-4.6-3.7-4.6c3.4,1.2,6.9,1.8,10.5,1.8"/>
		<path class="st6" d="M51.6,74h-3.4c0,0,0.4-4.7,0.7-4.3C49.2,70.1,49.1,73.1,51.6,74z"/>
		<path class="st6" d="M55.8,82.1c-2,0.7-4,2-6,0.9c-2.2-1.3-3.9-3.3-4.8-5.7c-0.8-2.3,1-1.5,2.7-1.3c2.6,0.2,5.5,0.9,8.1,0.7"/>
	</g>
	<g>
		<g>
			<path class="st1" d="M68.4,62.5c0,0-2.2-1.6-3.3-1.2c0,0,0.8,5.6,0.6,7.6C67.1,67,68,64.8,68.4,62.5z"/>
			<path class="st1" d="M60,74h3.4c0,0-0.4-4.7-0.7-4.3C62.4,70.1,62.5,73.1,60,74z"/>
			<path class="st1" d="M55.8,76.6l7.8-0.7c2.1-0.2,2.9-0.4,2.3,2.2c-0.5,2.3-2.5,5.6-5,5.4c-1.7-0.1-3.4-1.4-5.1-1.5"/>
			<path class="st1" d="M55.8,43.9c3.5,0.1,7-0.5,10.2-1.8c0,0,1,2.7-2.9,4.4s-6.3,3.8-6.4,6.3c-0.1,2.5-0.5,2.5-0.5,2.5l0,0
				c3.2,0.3,8.4,1.7,14.8,7.1c0,0,9.4-4.3,5-13.8s-9.8-18.6-9.8-18.6s5.2-5.7,12.2-4.6L72,30.5c0,0-2.9,2.8,0.2,6.1
				s7.7,11.9,7.7,11.9l3.5-5.6l-0.7-6.4l-4.3,1.1c0,0,11.2-25.3-11.6-25.3l-11,3.4"/>
		</g>
	</g>
	<g>
		<path class="st4" d="M11.9,97.4H19l0.9,0.9v6.5l-0.9,0.9h-7.1V97.4z M14.4,103.6h2.8l0.2-0.2v-3.8l-0.2-0.2h-2.8V103.6z"/>
		<path class="st4" d="M23.9,103.6h4.7v2.1h-7.1v-8.3h7.1v2.1h-4.7v1.1H28v2h-4.1V103.6L23.9,103.6z"/>
		<path class="st4" d="M32.5,103.6h3.7v2.1h-6.2v-8.3h2.5V103.6z"/>
		<path class="st4" d="M43.5,97.4v2.1h-2.6v6.3h-2.5v-6.3h-2.6v-2.1L43.5,97.4L43.5,97.4z"/>
		<path class="st4" d="M43.3,105.7l3-8.3h3l3,8.3h-2.6l-0.4-1.1h-3.1l-0.4,1.1H43.3z M48.7,102.8l-0.9-2.7l-0.9,2.7H48.7z"/>
		<g>
			<path class="st4" d="M60.4,103.6h3.7v2.1h-6.2v-8.3h2.5V103.6z"/>
			<path class="st4" d="M68,103.6h4.7v2.1h-7.1v-8.3h7.1v2.1H68v1.1h4.1v2H68V103.6L68,103.6z"/>
			<path class="st4" d="M81.2,97.4l0.9,0.9v6.5l-0.9,0.9H75l-0.9-0.9v-6.5l0.9-0.9L81.2,97.4L81.2,97.4z M79.4,99.4h-2.6l-0.2,0.2
				v3.8l0.2,0.2h2.6l0.2-0.2v-3.8L79.4,99.4z"/>
			<path class="st4" d="M86.1,105.7h-2.5v-8.3h2.5l2.9,4v-4h2.5v8.3h-2.1l-3.3-4.5L86.1,105.7L86.1,105.7z"/>
			<path class="st4" d="M95.6,105.7h-2.5v-8.3h2.5V105.7L95.6,105.7z"/>
			<path class="st4" d="M102,103.4v-0.7l-0.2-0.2H98l-0.9-0.9v-3.4l0.9-0.9h6.4v2.1h-4.6l-0.2,0.2v0.7l0.2,0.2h3.7l0.9,0.9v3.4
				l-0.9,0.9h-6.4v-2.1h4.6L102,103.4z"/>
		</g>
	</g>
</g>
</svg>
